<svg width="27" height="27" viewBox="0 0 27 27" fill="none" xmlns="http://www.w3.org/2000/svg">
<path d="M19.2967 16.9811H18.0772L17.6449 16.5643C19.2102 14.749 20.0704 12.4313 20.0686 10.0343C20.0686 8.04971 19.4801 6.10968 18.3775 4.45955C17.2749 2.80942 15.7078 1.52329 13.8743 0.76382C12.0407 0.00434771 10.0232 -0.194365 8.07671 0.192811C6.13025 0.579987 4.34231 1.53566 2.93898 2.93898C1.53566 4.34231 0.579987 6.13025 0.192811 8.07671C-0.194365 10.0232 0.00434771 12.0407 0.76382 13.8743C1.52329 15.7078 2.80942 17.2749 4.45955 18.3775C6.10968 19.4801 8.04971 20.0686 10.0343 20.0686C12.5197 20.0686 14.8045 19.1578 16.5643 17.6449L16.9811 18.0772V19.2967L24.6998 27L27 24.6998L19.2967 16.9811ZM10.0343 16.9811C6.1904 16.9811 3.08748 13.8782 3.08748 10.0343C3.08748 6.1904 6.1904 3.08748 10.0343 3.08748C13.8782 3.08748 16.9811 6.1904 16.9811 10.0343C16.9811 13.8782 13.8782 16.9811 10.0343 16.9811Z" fill="#939393"/>
<path d="M8.09069 6.87388C7.556 8.38219 7.49491 10.2578 7.92193 11.3269C8.46699 12.6947 9.78783 13.8055 10.9442 13.8667C11.4451 13.8862 11.4612 13.8992 11.9936 14.7214C12.552 15.5774 12.7131 15.7067 12.8613 15.456C12.9927 15.2427 13.0205 15.2905 11.7848 13.7765C10.8173 12.605 10.198 11.4453 9.91451 10.3129C9.57192 8.89088 9.68847 8.28339 10.0804 9.52832C10.4914 10.865 11.5787 12.7953 12.1991 13.2932C12.3684 13.4289 12.4094 13.4109 12.7578 12.9767C13.2306 12.3874 13.3425 11.9673 13.2232 11.3236C13.086 10.6526 12.7939 10.1251 11.5804 8.33574C11.0276 7.52249 10.3362 6.41964 10.0423 5.87793C9.74838 5.33622 9.48602 4.87079 9.45378 4.84492C9.42155 4.81906 9.15912 5.08008 8.87916 5.42899C8.48098 5.92523 8.30098 6.26512 8.09069 6.87388Z" fill="#939393"/>
</svg>
